<svg width="30" height="30" viewBox="0 0 30 30" fill="none" xmlns="http://www.w3.org/2000/svg">
<path d="M15.0001 0.599609C7.0321 0.599609 0.600098 7.03161 0.600098 14.9996C0.600098 22.9676 7.0321 29.3996 15.0001 29.3996C22.9681 29.3996 29.4001 22.9676 29.4001 14.9996C29.4001 7.03161 22.9681 0.599609 15.0001 0.599609ZM22.3281 19.8636C23.0002 20.5357 23.0002 21.6237 22.3281 22.2956C21.9761 22.6476 21.56 22.8076 21.112 22.8076C20.6641 22.8076 20.216 22.6476 19.896 22.2956L15.0962 17.4956L10.2643 22.2956C9.91226 22.6476 9.49621 22.8076 9.04821 22.8076C8.60021 22.8076 8.15221 22.6476 7.83216 22.2956C7.16004 21.6234 7.16004 20.5355 7.83216 19.8636L12.6641 15.0317L7.83216 10.2314C7.16004 9.55932 7.16004 8.47138 7.83216 7.7995C8.50427 7.12738 9.59221 7.12738 10.2641 7.7995L15.096 12.6314L19.928 7.7995C20.6001 7.12738 21.688 7.12738 22.3599 7.7995C23.032 8.47161 23.032 9.55955 22.3599 10.2314L17.5282 15.0636L22.3281 19.8636Z" fill="#616F86"/>
</svg>
