<svg width="48" height="48" viewBox="0 0 48 48" fill="none" xmlns="http://www.w3.org/2000/svg">
<mask id="path-1-inside-1_29_11391" fill="white">
<path d="M48 24C48 37.2548 37.2548 48 24 48C10.7452 48 0 37.2548 0 24C0 10.7452 10.7452 0 24 0C37.2548 0 48 10.7452 48 24Z"/>
<path d="M24.0039 12C17.3749 12 12 17.373 12 24C12 30.627 17.3749 36 24.0039 36C34.0139 36 36.2691 26.707 35.3301 22H24V26H31.7383C30.8487 29.4483 27.726 32 24 32C19.582 32 16 28.418 16 24C16 19.582 19.582 16 24 16C26.009 16 27.8391 16.7458 29.2441 17.9688L32.0859 15.1289C29.9519 13.1849 27.1169 12 24.0039 12Z"/>
</mask>
<path d="M48 24C48 37.2548 37.2548 48 24 48C10.7452 48 0 37.2548 0 24C0 10.7452 10.7452 0 24 0C37.2548 0 48 10.7452 48 24Z" fill="url(#paint0_linear_29_11391)"/>
<path d="M24.0039 12C17.3749 12 12 17.373 12 24C12 30.627 17.3749 36 24.0039 36C34.0139 36 36.2691 26.707 35.3301 22H24V26H31.7383C30.8487 29.4483 27.726 32 24 32C19.582 32 16 28.418 16 24C16 19.582 19.582 16 24 16C26.009 16 27.8391 16.7458 29.2441 17.9688L32.0859 15.1289C29.9519 13.1849 27.1169 12 24.0039 12Z" fill="white"/>
<path d="M35.3301 22L36.0166 21.8631L35.9042 21.3H35.3301V22ZM24 22V21.3H23.3V22H24ZM24 26H23.3V26.7H24V26ZM31.7383 26L32.4161 26.1749L32.6418 25.3H31.7383V26ZM29.2441 17.9688L28.7845 18.4967L29.2771 18.9255L29.7389 18.4639L29.2441 17.9688ZM32.0859 15.1289L32.5807 15.6241L33.0997 15.1055L32.5573 14.6114L32.0859 15.1289ZM47.3 24C47.3 36.8682 36.8682 47.3 24 47.3V48.7C37.6414 48.7 48.7 37.6414 48.7 24H47.3ZM24 47.3C11.1318 47.3 0.7 36.8682 0.7 24H-0.7C-0.7 37.6414 10.3586 48.7 24 48.7V47.3ZM0.7 24C0.7 11.1318 11.1318 0.7 24 0.7V-0.7C10.3586 -0.7 -0.7 10.3586 -0.7 24H0.7ZM24 0.7C36.8682 0.7 47.3 11.1318 47.3 24H48.7C48.7 10.3586 37.6414 -0.7 24 -0.7V0.7ZM24.0039 11.3C16.9885 11.3 11.3 16.9862 11.3 24H12.7C12.7 17.7598 17.7613 12.7 24.0039 12.7V11.3ZM11.3 24C11.3 31.0138 16.9885 36.7 24.0039 36.7V35.3C17.7613 35.3 12.7 30.2402 12.7 24H11.3ZM24.0039 36.7C29.2694 36.7 32.5604 34.2344 34.3776 31.1177C36.1677 28.0474 36.5169 24.3714 36.0166 21.8631L34.6436 22.1369C35.0822 24.3356 34.7733 27.6596 33.1682 30.4125C31.59 33.1191 28.7485 35.3 24.0039 35.3V36.7ZM23.3 22V26H24.7V22H23.3ZM24 26.7H31.7383V25.3H24V26.7ZM31.0605 25.8251C30.2483 28.9733 27.3975 31.3 24 31.3V32.7C28.0544 32.7 31.4491 29.9232 32.4161 26.1749L31.0605 25.8251ZM24 31.3C19.9686 31.3 16.7 28.0314 16.7 24H15.3C15.3 28.8046 19.1954 32.7 24 32.7V31.3ZM16.7 24C16.7 19.9686 19.9686 16.7 24 16.7V15.3C19.1954 15.3 15.3 19.1954 15.3 24H16.7ZM24 16.7C25.8319 16.7 27.5007 17.3792 28.7845 18.4967L29.7037 17.4408C28.1776 16.1123 26.1861 15.3 24 15.3V16.7ZM29.7389 18.4639L32.5807 15.6241L31.5911 14.6338L28.7493 17.4736L29.7389 18.4639ZM32.5573 14.6114C30.2996 12.5547 27.2981 11.3 24.0039 11.3V12.7C26.9357 12.7 29.6043 13.8151 31.6145 15.6464L32.5573 14.6114ZM35.3301 21.3H24V22.7H35.3301V21.3Z" fill="white" mask="url(#path-1-inside-1_29_11391)"/>
<defs>
<linearGradient id="paint0_linear_29_11391" x1="-5.5" y1="-1.65636e-07" x2="38.6885" y2="2.32788" gradientUnits="userSpaceOnUse">
<stop stop-color="#F5F5F5"/>
<stop offset="0.477732" stop-color="#DEBAF4"/>
<stop offset="1" stop-color="#B0CAFC"/>
</linearGradient>
</defs>
</svg>
