<svg width="12" height="14" viewBox="0 0 12 14" fill="none" xmlns="http://www.w3.org/2000/svg">
<path d="M0.750003 5.24992C0.749976 4.38298 0.964638 3.52953 1.37482 2.76577C1.78501 2.002 2.37795 1.35171 3.1007 0.872941C3.82344 0.394175 4.65351 0.101842 5.51677 0.0220442C6.38003 -0.0577532 7.24961 0.0774692 8.04788 0.415637C8.84614 0.753805 9.54824 1.28439 10.0915 1.96002C10.6347 2.63565 11.0022 3.4353 11.1611 4.28755C11.32 5.1398 11.2653 6.01814 11.002 6.84414C10.7388 7.67013 10.275 8.41807 9.65225 9.02117C9.47463 9.19267 9.33813 9.37117 9.25588 9.5628L8.58913 11.1107C8.5553 11.1891 8.49924 11.2559 8.42787 11.3029C8.35649 11.3499 8.27294 11.3749 8.1875 11.3749H3.8125C3.72692 11.3751 3.64317 11.3501 3.57163 11.3031C3.50009 11.2562 3.44389 11.1893 3.41 11.1107L2.74413 9.56192C2.64879 9.3574 2.5141 9.17365 2.34775 9.02117C1.84167 8.53219 1.43935 7.94622 1.16483 7.29825C0.890315 6.65029 0.749228 5.95364 0.750003 5.24992ZM3.375 12.6874C3.375 12.5714 3.4211 12.4601 3.50314 12.3781C3.58519 12.296 3.69647 12.2499 3.8125 12.2499H8.1875C8.30353 12.2499 8.41482 12.296 8.49686 12.3781C8.57891 12.4601 8.625 12.5714 8.625 12.6874C8.625 12.8035 8.57891 12.9147 8.49686 12.9968C8.41482 13.0788 8.30353 13.1249 8.1875 13.1249L7.9915 13.516C7.91889 13.6614 7.80725 13.7836 7.66909 13.8691C7.53093 13.9545 7.37171 13.9998 7.20925 13.9999H4.79075C4.6283 13.9998 4.46908 13.9545 4.33092 13.8691C4.19276 13.7836 4.08112 13.6614 4.0085 13.516L3.8125 13.1249C3.69647 13.1249 3.58519 13.0788 3.50314 12.9968C3.4211 12.9147 3.375 12.8035 3.375 12.6874Z" fill="url(#paint0_linear_201_1832)"/>
<defs>
<linearGradient id="paint0_linear_201_1832" x1="2.33219" y1="2.33312" x2="9.70677" y2="3.06864" gradientUnits="userSpaceOnUse">
<stop stop-color="#F5F5F5"/>
<stop offset="0.477732" stop-color="#F8ECFF"/>
<stop offset="1" stop-color="#DAE7FF"/>
</linearGradient>
</defs>
</svg>
