<svg width="14" height="14" viewBox="0 0 14 14" fill="none" xmlns="http://www.w3.org/2000/svg">
<path d="M13.583 12.7731L10.215 9.40783C11.0587 8.37846 11.5214 7.09033 11.5214 5.76C11.5214 2.58326 8.93659 0 5.76139 0C4.98513 0 4.23139 0.151874 3.52124 0.452803C2.83497 0.743889 2.21904 1.15874 1.6903 1.6875C1.16157 2.21626 0.745303 2.8322 0.454217 3.51843C0.153283 4.22859 0 4.98235 0 5.75859C0 8.93533 2.5848 11.5186 5.76 11.5186C7.09172 11.5186 8.37849 11.0559 9.40783 10.2122L12.7731 13.5774C12.8813 13.6857 13.0248 13.7447 13.1766 13.7447C13.3299 13.7447 13.4734 13.6857 13.5802 13.5774C13.8052 13.3566 13.8052 12.9952 13.583 12.773L13.583 12.7731ZM10.3811 5.75871C10.3811 8.30685 8.30829 10.3783 5.76152 10.3783C3.21339 10.3783 1.14195 8.30548 1.14195 5.75871C1.14195 3.21195 3.21475 1.13914 5.76152 1.13914C8.30829 1.13914 10.3811 3.21195 10.3811 5.75871Z" fill="url(#paint0_linear_345_756)"/>
<defs>
<linearGradient id="paint0_linear_345_756" x1="0.554408" y1="2.06171" x2="13.7498" y2="2.68103" gradientUnits="userSpaceOnUse">
<stop stop-color="#295A92"/>
<stop offset="0.485813" stop-color="#9D55C9"/>
<stop offset="1" stop-color="#0F73B7"/>
</linearGradient>
</defs>
</svg>
