<svg width="24" height="24" viewBox="0 0 24 24" fill="none" xmlns="http://www.w3.org/2000/svg">
<path d="M4.29899 22.275C4.18199 22.941 4.83899 23.4615 5.41799 23.1645L12.003 19.7805L18.5865 23.1645C19.1655 23.4615 19.8225 22.941 19.7055 22.2765L18.4605 15.1815L23.7435 10.1475C24.2385 9.67651 23.9835 8.81551 23.3205 8.72251L15.9735 7.67851L12.6975 1.18801C12.6351 1.05644 12.5366 0.945281 12.4136 0.867445C12.2905 0.789609 12.1479 0.748291 12.0022 0.748291C11.8566 0.748291 11.714 0.789609 11.5909 0.867445C11.4679 0.945281 11.3694 1.05644 11.307 1.18801L8.03099 7.68001L0.683994 8.72401C0.0224943 8.81701 -0.234006 9.67801 0.259494 10.149L5.54399 15.183L4.29899 22.278V22.275ZM11.6565 18.1245L6.12749 20.9655L7.16849 15.03C7.19288 14.8934 7.18334 14.7528 7.14071 14.6208C7.09808 14.4887 7.02366 14.3691 6.92399 14.2725L2.56499 10.1175L8.64299 9.25351C8.76885 9.2345 8.88823 9.18527 8.99089 9.11003C9.09356 9.0348 9.17646 8.93579 9.23249 8.82151L12 3.33451L14.7705 8.82151C14.8265 8.93579 14.9094 9.0348 15.0121 9.11003C15.1148 9.18527 15.2341 9.2345 15.36 9.25351L21.438 10.116L17.079 14.271C16.9791 14.3678 16.9045 14.4876 16.8619 14.62C16.8193 14.7523 16.8098 14.8931 16.8345 15.03L17.8755 20.9655L12.3465 18.1245C12.2396 18.0694 12.121 18.0406 12.0007 18.0406C11.8805 18.0406 11.7619 18.0694 11.655 18.1245H11.6565Z" fill="url(#paint0_linear_16_374)"/>
<defs>
<linearGradient id="paint0_linear_16_374" x1="0.969774" y1="4.12355" x2="23.9964" y2="5.27588" gradientUnits="userSpaceOnUse">
<stop stop-color="#295A92"/>
<stop offset="0.485813" stop-color="#9D55C9"/>
<stop offset="1" stop-color="#0F73B7"/>
</linearGradient>
</defs>
</svg>
