<svg width="26" height="26" viewBox="0 0 26 26" fill="none" xmlns="http://www.w3.org/2000/svg">
<path d="M13 0C5.8356 0 0 5.8356 0 13C0 20.1644 5.8356 26 13 26C20.1644 26 26 20.1644 26 13C26 5.8356 20.1644 0 13 0ZM18.9871 8.06699C19.5573 8.50204 19.6675 9.31668 19.2335 9.88753L13.2921 17.6876C12.8143 18.3144 11.8931 18.3754 11.337 17.8171L6.8783 13.3432C6.37229 12.8341 6.37447 12.0112 6.88352 11.5048C7.39257 10.9986 8.21567 11.001 8.7219 11.5098L12.1268 14.9274L17.1669 8.31286C17.6674 7.67604 18.3984 7.65932 18.9872 8.06649L18.9871 8.06699Z" fill="url(#paint0_linear_318_856)"/>
<defs>
<linearGradient id="paint0_linear_318_856" x1="1.04839" y1="3.9" x2="26.0009" y2="5.07074" gradientUnits="userSpaceOnUse">
<stop stop-color="#295A92"/>
<stop offset="0.485813" stop-color="#9D55C9"/>
<stop offset="1" stop-color="#0F73B7"/>
</linearGradient>
</defs>
</svg>
