<svg width="49" height="48" viewBox="0 0 49 48" fill="none" xmlns="http://www.w3.org/2000/svg">
<path d="M24.5 0C10.9699 0 0 10.8014 0 24.1236C0 36.2176 9.04867 46.2048 20.8373 47.9497V30.5164H14.7755V24.1759H20.8373V19.9563C20.8373 12.9705 24.2938 9.90476 30.1901 9.90476C33.0138 9.90476 34.5083 10.1118 35.2147 10.2043V15.7387H31.1926C28.6895 15.7387 27.8157 18.0766 27.8157 20.7101V24.1759H35.1514L34.1571 30.5164H27.8157V48C39.7737 46.4038 49 36.3362 49 24.1236C49 10.8014 38.0301 0 24.5 0Z" fill="url(#paint0_linear_29_11682)"/>
<defs>
<linearGradient id="paint0_linear_29_11682" x1="1.97581" y1="7.20001" x2="48.9974" y2="9.45215" gradientUnits="userSpaceOnUse">
<stop stop-color="#295A92"/>
<stop offset="0.485813" stop-color="#9D55C9"/>
<stop offset="1" stop-color="#0F73B7"/>
</linearGradient>
</defs>
</svg>
