<svg width="11" height="14" viewBox="0 0 11 14" fill="none" xmlns="http://www.w3.org/2000/svg">
<path d="M0.500003 5.25015L0.500003 5.25072C0.499302 5.88723 0.626916 6.51736 0.875221 7.10345C1.12275 7.6877 1.48515 8.21623 1.94088 8.65768C2.1532 8.85356 2.32524 9.08904 2.44731 9.35091L2.45049 9.35775L2.45347 9.36467L3.1029 10.8752H7.39626L8.04641 9.36583L0.500003 5.25015ZM0.500003 5.25015C0.499979 4.46578 0.694197 3.6936 1.06532 3.00258C1.43644 2.31156 1.9729 1.72319 2.62682 1.29002C3.28074 0.856855 4.03175 0.592363 4.81279 0.520166C5.59383 0.447968 6.3806 0.570312 7.10284 0.876274C7.82508 1.18224 8.46031 1.66229 8.95181 2.27357C9.44331 2.88486 9.77578 3.60835 9.91954 4.37943C10.0633 5.15052 10.0139 5.94521 9.77566 6.69254C9.53747 7.43982 9.11793 8.11649 8.55452 8.66214L0.500003 5.25015ZM3.06163 10.8752C3.06192 10.8752 3.06221 10.8752 3.0625 10.8752L3.06163 10.8752ZM3.43385 12.7502H7.06616L6.99049 12.9012L6.79449 13.2923L6.79424 13.2928C6.76311 13.3551 6.71527 13.4075 6.65606 13.4441C6.59685 13.4807 6.52861 13.5001 6.45899 13.5002H4.04102C3.9714 13.5001 3.90316 13.4807 3.84395 13.4441C3.78474 13.4075 3.73689 13.3551 3.70577 13.2928L3.70552 13.2923L3.50952 12.9012L3.43385 12.7502Z" stroke="url(#paint0_linear_201_2223)"/>
<defs>
<linearGradient id="paint0_linear_201_2223" x1="0.423387" y1="2.10003" x2="10.5101" y2="2.45496" gradientUnits="userSpaceOnUse">
<stop stop-color="#295A92"/>
<stop offset="0.485813" stop-color="#9D55C9"/>
<stop offset="1" stop-color="#0F73B7"/>
</linearGradient>
</defs>
</svg>
