<svg width="18" height="18" viewBox="0 0 18 18" fill="none" xmlns="http://www.w3.org/2000/svg">
<path d="M8.64 0C3.87566 0 0 3.876 0 8.64C0 13.404 3.876 17.28 8.64 17.28C13.404 17.28 17.28 13.404 17.28 8.64C17.28 3.876 13.404 0 8.64 0ZM8.63987 12.3909C4.37267 12.3909 3.26489 8.64 3.26489 8.64C3.26489 8.64 4.37236 4.88914 8.63987 4.88914C12.9074 4.88914 14.0148 8.64 14.0148 8.64C14.0148 8.64 12.9074 12.3909 8.63987 12.3909Z" fill="#D7DFEB"/>
<path d="M8.6399 5.7168C7.02552 5.7168 5.71704 7.02541 5.71704 8.63965C5.71704 10.2538 7.02552 11.5625 8.6399 11.5625C10.2543 11.5625 11.5628 10.254 11.5628 8.63965C11.5628 7.02528 10.2543 5.7168 8.6399 5.7168ZM10.0542 8.73044C10.0561 8.70031 10.0587 8.67031 10.0587 8.63964C10.0587 7.85604 9.42339 7.22079 8.63989 7.22079V6.45286C9.84778 6.45286 10.8268 7.43189 10.8268 8.63978C10.8268 8.67045 10.8236 8.70031 10.8223 8.73058L10.0542 8.73044Z" fill="#D7DFEB"/>
</svg>
