<svg width="24" height="24" viewBox="0 0 24 24" fill="none" xmlns="http://www.w3.org/2000/svg">
<path d="M4.29893 22.275C4.18193 22.941 4.83893 23.4615 5.41793 23.1645L12.0029 19.7805L18.5864 23.1645C19.1654 23.4615 19.8224 22.941 19.7054 22.2765L18.4604 15.1815L23.7434 10.1475C24.2384 9.67651 23.9834 8.81551 23.3204 8.72251L15.9734 7.67851L12.6974 1.18801C12.635 1.05644 12.5366 0.945281 12.4135 0.867445C12.2904 0.789609 12.1478 0.748291 12.0022 0.748291C11.8566 0.748291 11.7139 0.789609 11.5909 0.867445C11.4678 0.945281 11.3693 1.05644 11.3069 1.18801L8.03093 7.68001L0.683933 8.72401C0.0224333 8.81701 -0.234067 9.67801 0.259433 10.149L5.54393 15.183L4.29893 22.278V22.275ZM11.6564 18.1245L6.12743 20.9655L7.16843 15.03C7.19282 14.8934 7.18328 14.7528 7.14065 14.6208C7.09801 14.4887 7.0236 14.3691 6.92393 14.2725L2.56493 10.1175L8.64293 9.25351C8.76879 9.2345 8.88816 9.18527 8.99083 9.11003C9.0935 9.0348 9.1764 8.93579 9.23243 8.82151L11.9999 3.33451L14.7704 8.82151C14.8265 8.93579 14.9094 9.0348 15.012 9.11003C15.1147 9.18527 15.2341 9.2345 15.3599 9.25351L21.4379 10.116L17.0789 14.271C16.979 14.3678 16.9045 14.4876 16.8618 14.62C16.8192 14.7523 16.8098 14.8931 16.8344 15.03L17.8754 20.9655L12.3464 18.1245C12.2395 18.0694 12.121 18.0406 12.0007 18.0406C11.8804 18.0406 11.7618 18.0694 11.6549 18.1245H11.6564Z" fill="url(#paint0_linear_243_1000)"/>
<defs>
<linearGradient id="paint0_linear_243_1000" x1="3.61846" y1="4.49858" x2="20.3069" y2="6.86569" gradientUnits="userSpaceOnUse">
<stop stop-color="#F5F5F5"/>
<stop offset="0.477732" stop-color="#DEBAF4"/>
<stop offset="1" stop-color="#B0CAFC"/>
</linearGradient>
</defs>
</svg>
